<?xml version="1.0" encoding="utf-8"?>
<svg version="1.1" id="Layer_1" xmlns="http://www.w3.org/2000/svg" xmlns:xlink="http://www.w3.org/1999/xlink" x="0px" y="0px"
	 viewBox="0 0 500 500" style="enable-background:new 0 0 500 500;" xml:space="preserve">
<style type="text/css">
	.st0{fill:#a684ff;}
	.st1{fill:#c3f971;}
</style>
<path class="st1" d="M347.9,84.3H152.1c-48.1,0-87.1,39-87.1,87.1v0c0,48.1,39,87.1,87.1,87.1h195.9c48.1,0,87.1-39,87.1-87.1v0
	C435,123.3,396,84.3,347.9,84.3z M148.5,210.9c-21.8,0-39.5-17.7-39.5-39.5c0-21.8,17.7-39.5,39.5-39.5c21.8,0,39.5,17.7,39.5,39.5
	C188,193.2,170.4,210.9,148.5,210.9z M350.9,210.9c-21.8,0-39.5-17.7-39.5-39.5c0-21.8,17.7-39.5,39.5-39.5
	c21.8,0,39.5,17.7,39.5,39.5C390.4,193.2,372.7,210.9,350.9,210.9z"/>
<path class="st0" d="M340.2,356.8H164.4c-19.9,0-36-16.1-36-36v0c0-19.9,16.1-36,36-36h175.8c19.9,0,36,16.1,36,36v0
	C376.2,340.7,360.1,356.8,340.2,356.8z"/>
<path class="st0" d="M293,455.2h-81.3c-19.9,0-36-16.1-36-36v0c0-19.9,16.1-36,36-36H293c19.9,0,36,16.1,36,36v0
	C329,439.1,312.9,455.2,293,455.2z"/>
<circle class="st0" cx="250" cy="84.3" r="39.5"/>
</svg>
